<?xml version="1.0" standalone="no"?><!DOCTYPE svg PUBLIC "-//W3C//DTD SVG 1.1//EN" "http://www.w3.org/Graphics/SVG/1.1/DTD/svg11.dtd"><svg t="1595635796192" class="icon" viewBox="0 0 1024 1024" version="1.1" xmlns="http://www.w3.org/2000/svg" p-id="5729" xmlns:xlink="http://www.w3.org/1999/xlink" width="200" height="200"><defs><style type="text/css"></style></defs><path d="M682.666667 420.977778m-28.444445 0a28.444444 28.444444 0 1 0 56.888889 0 28.444444 28.444444 0 1 0-56.888889 0Z" p-id="5730" fill="#8a8a8a"></path><path d="M682.666667 599.22963m-28.444445 0a28.444444 28.444444 0 1 0 56.888889 0 28.444444 28.444444 0 1 0-56.888889 0Z" p-id="5731" fill="#8a8a8a"></path><path d="M682.666667 770.844444m-28.444445 0a28.444444 28.444444 0 1 0 56.888889 0 28.444444 28.444444 0 1 0-56.888889 0Z" p-id="5732" fill="#8a8a8a"></path><path d="M511.905185 361.054815c-82.488889 0-160.426667-10.24-219.306666-28.918519-85.143704-26.927407-103.063704-62.577778-103.063704-87.703703s17.92-60.681481 103.063704-87.703704c58.88-18.583704 136.722963-28.918519 219.306666-28.918519s160.426667 10.24 219.306667 28.918519c85.143704 26.927407 103.063704 62.577778 103.063704 87.703704s-17.92 60.681481-103.063704 87.703703c-58.88 18.678519-136.817778 28.918519-219.306667 28.918519z m0-190.388148c-78.317037 0-151.608889 9.576296-206.411852 26.927407-50.346667 15.928889-73.291852 35.555556-73.291852 46.933333s22.945185 31.099259 73.291852 46.933334c54.802963 17.351111 128.18963 26.927407 206.411852 26.927407s151.608889-9.576296 206.411852-26.927407c50.346667-15.928889 73.291852-35.555556 73.291852-46.933334s-22.945185-31.099259-73.291852-46.933333C663.514074 180.242963 590.127407 170.666667 511.905185 170.666667zM511.905185 721.351111c-82.488889 0-160.426667-10.24-219.306666-28.918518-85.143704-26.927407-103.063704-62.577778-103.063704-87.703704h42.666666c0 11.472593 22.945185 31.099259 73.291852 46.933333 54.802963 17.351111 128.18963 26.927407 206.411852 26.927408s151.608889-9.576296 206.411852-26.927408c50.346667-15.928889 73.291852-35.555556 73.291852-46.933333h42.666667c0 25.125926-17.92 60.681481-103.063704 87.703704-58.88 18.678519-136.817778 28.918519-219.306667 28.918518zM511.905185 546.797037c-82.488889 0-160.426667-10.24-219.306666-28.918518-85.143704-26.927407-103.063704-62.577778-103.063704-87.703704h42.666666c0 11.472593 22.945185 31.099259 73.291852 46.933333 54.802963 17.351111 128.18963 26.927407 206.411852 26.927408 78.317037 0 151.608889-9.576296 206.411852-26.927408 50.346667-15.928889 73.291852-35.555556 73.291852-46.933333h42.666667c0 25.125926-17.92 60.681481-103.063704 87.703704-58.88 18.678519-136.817778 28.918519-219.306667 28.918518zM511.905185 896c-82.488889 0-160.426667-10.24-219.306666-28.918519-85.143704-26.927407-103.063704-62.577778-103.063704-87.703703h42.666666c0 11.472593 22.945185 31.099259 73.291852 46.933333C360.296296 843.757037 433.588148 853.333333 511.905185 853.333333s151.608889-9.576296 206.411852-26.927407c50.346667-15.928889 73.291852-35.555556 73.291852-46.933333h42.666667c0 25.125926-17.92 60.681481-103.063704 87.703703-58.88 18.583704-136.817778 28.823704-219.306667 28.823704z" p-id="5733" fill="#8a8a8a"></path><path d="M189.534815 244.527407h42.666666v534.945186h-42.666666z" p-id="5734" fill="#8a8a8a"></path><path d="M791.608889 244.527407h42.666667v534.945186h-42.666667z" p-id="5735" fill="#8a8a8a"></path></svg>