<?xml version="1.0" standalone="no"?><!DOCTYPE svg PUBLIC "-//W3C//DTD SVG 1.1//EN" "http://www.w3.org/Graphics/SVG/1.1/DTD/svg11.dtd"><svg t="1595635706692" class="icon" viewBox="0 0 1024 1024" version="1.1" xmlns="http://www.w3.org/2000/svg" p-id="5234" xmlns:xlink="http://www.w3.org/1999/xlink" width="200" height="200"><defs><style type="text/css"></style></defs><path d="M546.607407 484.02963c-41.623704 0-75.567407-33.943704-75.567407-75.757037s33.848889-75.757037 75.567407-75.757037 75.567407 33.943704 75.567408 75.757037-33.943704 75.757037-75.567408 75.757037z m0-108.752593c-18.10963 0-32.900741 14.791111-32.90074 33.09037s14.791111 33.09037 32.90074 33.090371 32.900741-14.791111 32.900741-33.090371-14.791111-33.09037-32.900741-33.09037zM463.17037 895.051852c-41.623704 0-75.567407-33.943704-75.567407-75.757037s33.848889-75.757037 75.567407-75.757037 75.567407 33.943704 75.567408 75.757037-33.943704 75.757037-75.567408 75.757037z m0-108.752593c-18.10963 0-32.900741 14.791111-32.90074 33.090371s14.791111 33.09037 32.90074 33.09037 32.900741-14.791111 32.900741-33.09037-14.791111-33.09037-32.900741-33.090371zM458.619259 296.675556c-46.648889 0-84.574815-38.020741-84.574815-84.764445s37.925926-84.764444 84.574815-84.764444 84.574815 38.020741 84.574815 84.764444-37.925926 84.764444-84.574815 84.764445z m0-126.957037c-23.134815 0-41.908148 18.868148-41.908148 42.097777s18.773333 42.097778 41.908148 42.097778 41.908148-18.868148 41.908148-42.097778-18.773333-42.097778-41.908148-42.097777zM464.497778 689.588148c-46.648889 0-84.574815-38.020741-84.574815-84.764444s37.925926-84.764444 84.574815-84.764445 84.574815 38.020741 84.574815 84.764445-37.925926 84.764444-84.574815 84.764444z m0-126.957037c-23.134815 0-41.908148 18.868148-41.908148 42.097778s18.773333 42.097778 41.908148 42.097778 41.908148-18.868148 41.908148-42.097778-18.773333-42.097778-41.908148-42.097778zM763.448889 704.948148c-50.157037 0-90.927407-40.865185-90.927408-91.117037s40.77037-91.117037 90.927408-91.117037 90.927407 40.865185 90.927407 91.117037-40.865185 91.117037-90.927407 91.117037z m0-139.662222c-26.642963 0-48.260741 21.712593-48.260741 48.45037s21.617778 48.45037 48.260741 48.450371 48.260741-21.712593 48.260741-48.450371-21.712593-48.45037-48.260741-48.45037zM267.093333 503.940741c-52.622222 0-95.383704-42.951111-95.383703-95.668148s42.761481-95.668148 95.383703-95.668149c52.622222 0 95.383704 42.951111 95.383704 95.668149s-42.761481 95.668148-95.383704 95.668148z m0-148.66963c-29.108148 0-52.717037 23.798519-52.717037 53.001482s23.703704 53.001481 52.717037 53.001481 52.717037-23.798519 52.717037-53.001481-23.608889-53.001481-52.717037-53.001482z" p-id="5235" fill="#8a8a8a"></path><path d="M316.397037 374.139259c-5.688889 0-11.377778-2.275556-15.54963-6.731852-8.059259-8.628148-7.585185-22.091852 1.042963-30.151111L402.014815 243.674074c8.628148-8.059259 22.091852-7.585185 30.151111 1.042963s7.585185 22.091852-1.042963 30.151111L330.903704 368.355556c-4.077037 3.887407-9.291852 5.783704-14.506667 5.783703zM420.314074 580.740741c-5.214815 0-10.42963-1.896296-14.601481-5.783704L302.648889 478.625185c-8.628148-8.059259-9.102222-21.522963-1.042963-30.151111 8.059259-8.628148 21.522963-9.102222 30.151111-1.042963l103.063704 96.331852c8.628148 8.059259 9.102222 21.522963 1.042963 30.151111-4.171852 4.551111-9.860741 6.826667-15.54963 6.826667zM508.207407 809.813333c-6.826667 0-13.463704-3.223704-17.635555-9.291852-6.637037-9.765926-4.171852-23.04 5.594074-29.677037l197.783704-135.395555c9.765926-6.637037 23.04-4.171852 29.677037 5.594074s4.171852 23.04-5.594074 29.677037L520.248889 806.115556c-3.697778 2.56-7.86963 3.697778-12.041482 3.697777zM712.817778 587.188148c-5.30963 0-10.524444-1.896296-14.696297-5.878518L571.354074 461.179259c-8.533333-8.059259-8.912593-21.617778-0.853333-30.151111s21.617778-8.912593 30.151111-0.853333l126.862222 120.225185c8.533333 8.059259 8.912593 21.617778 0.853333 30.151111-4.266667 4.456296-9.860741 6.637037-15.549629 6.637037z" p-id="5236" fill="#8a8a8a"></path></svg>