<?xml version="1.0" standalone="no"?><!DOCTYPE svg PUBLIC "-//W3C//DTD SVG 1.1//EN" "http://www.w3.org/Graphics/SVG/1.1/DTD/svg11.dtd"><svg t="1595635753436" class="icon" viewBox="0 0 1024 1024" version="1.1" xmlns="http://www.w3.org/2000/svg" p-id="5481" xmlns:xlink="http://www.w3.org/1999/xlink" width="200" height="200"><defs><style type="text/css"></style></defs><path d="M851.911111 735.004444h-679.822222c-24.272593 0-44.088889-19.816296-44.088889-44.088888V195.792593c0-24.272593 19.816296-44.088889 44.088889-44.088889h679.822222c24.272593 0 44.088889 19.816296 44.088889 44.088889v495.028148c0 24.367407-19.816296 44.183704-44.088889 44.183703zM172.088889 194.37037c-0.758519 0-1.422222 0.663704-1.422222 1.422223v495.028148c0 0.758519 0.663704 1.422222 1.422222 1.422222h679.822222c0.758519 0 1.422222-0.663704 1.422222-1.422222V195.792593c0-0.758519-0.663704-1.422222-1.422222-1.422223h-679.822222z" p-id="5482" fill="#8a8a8a"></path><path d="M874.666667 621.89037h-725.333334c-11.757037 0-21.333333-9.576296-21.333333-21.333333s9.576296-21.333333 21.333333-21.333333h725.333334c11.757037 0 21.333333 9.576296 21.333333 21.333333s-9.576296 21.333333-21.333333 21.333333zM512 872.296296c-11.757037 0-21.333333-9.576296-21.333333-21.333333V720.877037c0-11.757037 9.576296-21.333333 21.333333-21.333333s21.333333 9.576296 21.333333 21.333333v130.180741c0 11.757037-9.576296 21.238519-21.333333 21.238518z" p-id="5483" fill="#8a8a8a"></path><path d="M653.084444 872.296296H371.01037c-11.757037 0-21.333333-9.576296-21.333333-21.333333s9.576296-21.333333 21.333333-21.333333h282.074074c11.757037 0 21.333333 9.576296 21.333334 21.333333S664.841481 872.296296 653.084444 872.296296z" p-id="5484" fill="#8a8a8a"></path></svg>